{
  "meta": {
    "source": "still_suno.mp4",
    "note_count": 39,
    "duration_sec": 29.977,
    "format": "listen-notes-v1",
    "engine": "librosa-pyin"
  },
  "notes": [
    {
      "pitch": 50,
      "name": "D3",
      "start": 0.0464,
      "end": 0.4644,
      "duration": 0.418,
      "velocity": 80
    },
    {
      "pitch": 50,
      "name": "D3",
      "start": 0.5573,
      "end": 2.2059,
      "duration": 1.6486,
      "velocity": 80
    },
    {
      "pitch": 36,
      "name": "C2",
      "start": 2.2756,
      "end": 2.6006,
      "duration": 0.3251,
      "velocity": 80
    },
    {
      "pitch": 52,
      "name": "E3",
      "start": 2.6703,
      "end": 3.274,
      "duration": 0.6037,
      "velocity": 80
    },
    {
      "pitch": 44,
      "name": "G#2",
      "start": 3.3205,
      "end": 3.6455,
      "duration": 0.3251,
      "velocity": 80
    },
    {
      "pitch": 59,
      "name": "B3",
      "start": 3.7152,
      "end": 4.6208,
      "duration": 0.9056,
      "velocity": 80
    },
    {
      "pitch": 46,
      "name": "A#2",
      "start": 4.7137,
      "end": 7.2911,
      "duration": 2.5774,
      "velocity": 80
    },
    {
      "pitch": 50,
      "name": "D3",
      "start": 7.3143,
      "end": 7.8716,
      "duration": 0.5573,
      "velocity": 80
    },
    {
      "pitch": 50,
      "name": "D3",
      "start": 7.8948,
      "end": 9.6363,
      "duration": 1.7415,
      "velocity": 80
    },
    {
      "pitch": 46,
      "name": "A#2",
      "start": 9.7756,
      "end": 11.3081,
      "duration": 1.5325,
      "velocity": 80
    },
    {
      "pitch": 48,
      "name": "C3",
      "start": 11.3313,
      "end": 12.3298,
      "duration": 0.9985,
      "velocity": 80
    },
    {
      "pitch": 36,
      "name": "C2",
      "start": 12.3762,
      "end": 12.7478,
      "duration": 0.3715,
      "velocity": 80
    },
    {
      "pitch": 52,
      "name": "E3",
      "start": 12.8174,
      "end": 13.1889,
      "duration": 0.3715,
      "velocity": 80
    },
    {
      "pitch": 36,
      "name": "C2",
      "start": 13.2586,
      "end": 13.5605,
      "duration": 0.3019,
      "velocity": 80
    },
    {
      "pitch": 52,
      "name": "E3",
      "start": 13.6301,
      "end": 14.4196,
      "duration": 0.7895,
      "velocity": 80
    },
    {
      "pitch": 55,
      "name": "G3",
      "start": 14.5357,
      "end": 14.9072,
      "duration": 0.3715,
      "velocity": 80
    },
    {
      "pitch": 41,
      "name": "F2",
      "start": 14.9537,
      "end": 15.2555,
      "duration": 0.3019,
      "velocity": 80
    },
    {
      "pitch": 56,
      "name": "G#3",
      "start": 15.302,
      "end": 15.5574,
      "duration": 0.2554,
      "velocity": 80
    },
    {
      "pitch": 57,
      "name": "A3",
      "start": 15.7199,
      "end": 16.1843,
      "duration": 0.4644,
      "velocity": 80
    },
    {
      "pitch": 50,
      "name": "D3",
      "start": 16.4397,
      "end": 16.6023,
      "duration": 0.1625,
      "velocity": 80
    },
    {
      "pitch": 43,
      "name": "G2",
      "start": 16.6255,
      "end": 17.3221,
      "duration": 0.6966,
      "velocity": 80
    },
    {
      "pitch": 50,
      "name": "D3",
      "start": 17.4614,
      "end": 17.8097,
      "duration": 0.3483,
      "velocity": 80
    },
    {
      "pitch": 50,
      "name": "D3",
      "start": 17.8329,
      "end": 18.2973,
      "duration": 0.4644,
      "velocity": 80
    },
    {
      "pitch": 36,
      "name": "C2",
      "start": 18.367,
      "end": 19.1565,
      "duration": 0.7895,
      "velocity": 80
    },
    {
      "pitch": 43,
      "name": "G2",
      "start": 19.1797,
      "end": 19.3654,
      "duration": 0.1858,
      "velocity": 80
    },
    {
      "pitch": 47,
      "name": "B2",
      "start": 19.4351,
      "end": 20.0156,
      "duration": 0.5805,
      "velocity": 80
    },
    {
      "pitch": 45,
      "name": "A2",
      "start": 20.1549,
      "end": 20.48,
      "duration": 0.3251,
      "velocity": 80
    },
    {
      "pitch": 52,
      "name": "E3",
      "start": 20.8515,
      "end": 21.1534,
      "duration": 0.3019,
      "velocity": 80
    },
    {
      "pitch": 55,
      "name": "G3",
      "start": 21.1766,
      "end": 22.1054,
      "duration": 0.9288,
      "velocity": 80
    },
    {
      "pitch": 57,
      "name": "A3",
      "start": 22.4073,
      "end": 23.1735,
      "duration": 0.7663,
      "velocity": 80
    },
    {
      "pitch": 50,
      "name": "D3",
      "start": 23.2664,
      "end": 23.4986,
      "duration": 0.2322,
      "velocity": 80
    },
    {
      "pitch": 43,
      "name": "G2",
      "start": 23.5218,
      "end": 24.1023,
      "duration": 0.5805,
      "velocity": 80
    },
    {
      "pitch": 49,
      "name": "C#3",
      "start": 24.1255,
      "end": 24.4971,
      "duration": 0.3715,
      "velocity": 80
    },
    {
      "pitch": 50,
      "name": "D3",
      "start": 24.5435,
      "end": 26.8655,
      "duration": 2.322,
      "velocity": 80
    },
    {
      "pitch": 36,
      "name": "C2",
      "start": 26.9119,
      "end": 27.5389,
      "duration": 0.6269,
      "velocity": 80
    },
    {
      "pitch": 61,
      "name": "C#4",
      "start": 27.7478,
      "end": 28.4909,
      "duration": 0.743,
      "velocity": 80
    },
    {
      "pitch": 36,
      "name": "C2",
      "start": 28.607,
      "end": 29.0946,
      "duration": 0.4876,
      "velocity": 80
    },
    {
      "pitch": 36,
      "name": "C2",
      "start": 29.141,
      "end": 29.4429,
      "duration": 0.3019,
      "velocity": 80
    },
    {
      "pitch": 36,
      "name": "C2",
      "start": 29.6751,
      "end": 30.0002,
      "duration": 0.3251,
      "velocity": 80
    }
  ],
  "analysis": {
    "pitch_range": {
      "lowest": "C2",
      "highest": "C#4",
      "span_semitones": 25
    },
    "velocity": {
      "min": 80,
      "max": 80,
      "avg": 80.0
    },
    "density_per_sec": [
      2,
      0,
      2,
      2,
      1,
      0,
      0,
      2,
      0,
      1,
      0,
      1,
      2,
      2,
      2,
      2,
      2,
      2,
      1,
      2,
      2,
      1,
      1,
      2,
      2,
      0,
      1,
      1,
      1,
      2
    ],
    "busiest_sec": 0,
    "longest_silence": {
      "seconds": 0.3715,
      "starts_at": 20.48
    },
    "notes_per_sec_avg": 1.3
  }
}